<?xml version="1.0" encoding="UTF-8"?>
<svg width="512px" height="512px" viewBox="0 0 512 512" version="1.1" xmlns="http://www.w3.org/2000/svg" xmlns:xlink="http://www.w3.org/1999/xlink">
    <title>internalnote_black_dark</title>
    <g id="internalnote_black_dark" stroke="none" stroke-width="1" fill="none" fill-rule="evenodd">
        <g id="Group-2-Copy" transform="translate(49.000000, 57.000000)" fill="#FFFFFF">
            <path d="M2.29738416,246.816914 L141.334683,8.88469512 C143.006548,6.02365885 146.681192,5.05964576 149.542228,6.73151162 C150.436552,7.25411575 151.180349,7.99934636 151.70123,8.89467464 L198.239625,88.8882211 C199.327404,90.7579737 199.324525,93.0685059 198.232089,94.9355413 L109.335443,246.864997 C107.988888,249.166336 108.322584,252.080208 110.154551,254.017544 L194.840276,343.57415 C197.041889,345.902393 197.025484,349.549712 194.803017,351.858056 L150.83547,397.524543 C148.537149,399.911672 144.738842,399.983666 142.351712,397.685345 C142.301546,397.637045 142.252225,397.587876 142.20377,397.537859 L3.16832884,254.018888 C1.29527224,252.08543 0.939213723,249.141128 2.29738416,246.816914 Z" id="Path-3"></path>
            <path d="M122.296123,246.409522 L201.516032,110.883059 C203.188277,108.022245 206.863048,107.058719 209.723862,108.730964 C210.617954,109.253592 211.361547,109.998746 211.882298,110.893932 L290.722811,246.423088 C292.070532,248.739861 291.718214,251.6695 289.859634,253.600682 L211.021206,335.518812 C208.72337,337.906409 204.925077,337.979175 202.537481,335.681339 C202.485744,335.631547 202.434904,335.58083 202.384988,335.529213 L123.162994,253.608389 C121.292796,251.67448 120.938484,248.73212 122.296123,246.409522 Z" id="Path-4"></path>
            <path d="M215.297384,246.816914 L354.334683,8.88469512 C356.006548,6.02365885 359.681192,5.05964576 362.542228,6.73151162 C363.436552,7.25411575 364.180349,7.99934636 364.70123,8.89467464 L411.239625,88.8882211 C412.327404,90.7579737 412.324525,93.0685059 411.232089,94.9355413 L322.335443,246.864997 C320.988888,249.166336 321.322584,252.080208 323.154551,254.017544 L407.840276,343.57415 C410.041889,345.902393 410.025484,349.549712 407.803017,351.858056 L363.83547,397.524543 C361.537149,399.911672 357.738842,399.983666 355.351712,397.685345 C355.301546,397.637045 355.252225,397.587876 355.20377,397.537859 L216.168329,254.018888 C214.295272,252.08543 213.939214,249.141128 215.297384,246.816914 Z" id="Path-3-Copy" transform="translate(313.000000, 201.000000) scale(-1, 1) translate(-313.000000, -201.000000) "></path>
        </g>
    </g>
</svg>